<!-- Generator: Adobe Illustrator 17.0.0, SVG Export Plug-In  -->
<svg version="1.1"
	 xmlns="http://www.w3.org/2000/svg" xmlns:xlink="http://www.w3.org/1999/xlink" xmlns:a="http://ns.adobe.com/AdobeSVGViewerExtensions/3.0/"
	 x="0px" y="0px" width="120px" height="90.591px" viewBox="0 0 120 90.591" enable-background="new 0 0 120 90.591"
	 xml:space="preserve">
<defs>
</defs>
<polygon fill="#FFFFFF" points="120,70.073 61.055,90.591 0,70.073 0,0 120,0 "/>
<g>
	<g>
		<path d="M32.448,51.315c0.602,0,1.236,0.174,1.707,0.582l-0.414,0.621c-0.285-0.252-0.789-0.44-1.223-0.44
			c-1.027,0-1.577,0.724-1.577,1.577c0,0.99,0.679,1.643,1.539,1.643c0.427,0,0.847-0.187,1.151-0.479v-0.536h-0.705v-0.718h1.454
			v2.418H33.67v-0.22c0-0.097,0.006-0.194,0.006-0.194h-0.013c-0.297,0.291-0.808,0.491-1.331,0.491
			c-1.21,0-2.251-0.938-2.251-2.379C30.081,52.35,31.083,51.315,32.448,51.315z"/>
		<path d="M44.683,51.393h1.513c0.453,0,0.673,0.039,0.867,0.123c0.472,0.194,0.776,0.634,0.776,1.254
			c0,0.543-0.284,1.061-0.769,1.254v0.013c0,0,0.058,0.071,0.148,0.239l0.944,1.707h-0.938l-0.905-1.713h-0.802v1.713h-0.834V51.393
			z M46.267,53.546c0.446,0,0.725-0.278,0.725-0.73c0-0.291-0.11-0.524-0.362-0.627c-0.116-0.052-0.252-0.078-0.504-0.078h-0.608
			v1.435H46.267z"/>
		<path d="M60.268,51.315c1.39,0,2.374,1.028,2.374,2.34c0,1.351-0.983,2.405-2.374,2.405c-1.39,0-2.373-1.054-2.373-2.405
			C57.895,52.343,58.878,51.315,60.268,51.315z M60.268,55.298c0.88,0,1.513-0.711,1.513-1.643c0-0.892-0.634-1.577-1.513-1.577
			c-0.879,0-1.513,0.685-1.513,1.577C58.755,54.587,59.389,55.298,60.268,55.298z"/>
		<path d="M72.814,51.393h0.834v2.936c0,0.621,0.401,0.97,1.015,0.97s1.015-0.349,1.015-0.97v-2.936h0.834v2.942
			c0,1.028-0.737,1.726-1.843,1.726c-1.112,0-1.856-0.698-1.856-1.726V51.393z"/>
		<path d="M86.956,51.393h1.772c0.86,0,1.461,0.602,1.461,1.494s-0.601,1.513-1.461,1.513H87.79v1.584h-0.834V51.393z
			 M88.573,53.675c0.485,0,0.77-0.31,0.77-0.789c0-0.472-0.284-0.776-0.757-0.776H87.79v1.565H88.573z"/>
	</g>
	<path d="M100.296,29.958c0.667-1.094,1.052-2.358,1.052-3.733c0-3.987-3.232-7.198-7.22-7.198H80.488v25.607h15.261V44.61
		c4.397,0,8.046-3.588,8.046-8.053C103.796,33.812,102.389,31.419,100.296,29.958z"/>
	<path d="M58.97,19.07H48.544v25.688H58.97c7.094,0,12.844-5.751,12.844-12.844C71.814,24.821,66.063,19.07,58.97,19.07z"/>
	<path d="M36.013,30.131c0.667-1.094,1.052-2.401,1.052-3.776c0-3.987-3.232-7.241-7.22-7.241H16.204v25.607l15.261,0.062
		c4.397,0,8.046-3.588,8.046-8.053C39.512,33.985,38.105,31.592,36.013,30.131z"/>
</g>
</svg>
