<!-- Generator: Adobe Illustrator 17.0.0, SVG Export Plug-In  -->
<svg version="1.1"
	 xmlns="http://www.w3.org/2000/svg" xmlns:xlink="http://www.w3.org/1999/xlink" xmlns:a="http://ns.adobe.com/AdobeSVGViewerExtensions/3.0/"
	 x="0px" y="0px" width="14.69px" height="9.14px" viewBox="0 0 14.69 9.14" enable-background="new 0 0 14.69 9.14"
	 xml:space="preserve">
<defs>
</defs>
<path id="behance_1_" fill="#FFFFFF" d="M13.266,1.293H9.585V0.379h3.681L13.266,1.293L13.266,1.293z M7.135,5.043
	C7.372,5.41,7.491,5.857,7.491,6.382c0,0.542-0.134,1.029-0.406,1.458C6.912,8.124,6.697,8.365,6.439,8.558
	C6.148,8.782,5.803,8.935,5.407,9.017C5.01,9.099,4.58,9.14,4.116,9.14H0V0h4.414c1.113,0.018,1.902,0.34,2.367,0.974
	C7.061,1.362,7.2,1.828,7.2,2.369c0,0.559-0.14,1.006-0.422,1.346c-0.157,0.19-0.389,0.364-0.696,0.52
	C6.546,4.405,6.899,4.673,7.135,5.043z M2.108,3.604h1.934c0.397,0,0.719-0.076,0.966-0.227c0.247-0.151,0.371-0.419,0.371-0.804
	c0-0.425-0.163-0.707-0.491-0.843C4.607,1.636,4.246,1.587,3.809,1.587H2.108V3.604z M5.565,6.251c0-0.475-0.194-0.803-0.581-0.979
	c-0.217-0.1-0.522-0.151-0.914-0.155H2.108v2.436H4.04c0.397,0,0.704-0.052,0.926-0.16C5.365,7.193,5.565,6.814,5.565,6.251z
	 M14.632,4.764c0.044,0.299,0.065,0.733,0.056,1.3H9.921c0.026,0.658,0.253,1.118,0.684,1.381c0.26,0.165,0.575,0.246,0.944,0.246
	c0.389,0,0.706-0.098,0.95-0.3c0.133-0.107,0.25-0.258,0.352-0.449h1.747c-0.046,0.389-0.256,0.783-0.634,1.183
	c-0.586,0.637-1.407,0.956-2.462,0.956c-0.872,0-1.64-0.269-2.306-0.806C8.53,7.737,8.197,6.864,8.197,5.652
	c0-1.136,0.3-2.005,0.901-2.61c0.603-0.606,1.382-0.908,2.342-0.908c0.569,0,1.082,0.102,1.54,0.306
	c0.456,0.205,0.833,0.527,1.13,0.97C14.378,3.8,14.551,4.25,14.632,4.764z M12.912,4.935C12.88,4.48,12.728,4.135,12.454,3.9
	c-0.271-0.236-0.61-0.354-1.015-0.354c-0.44,0-0.78,0.127-1.021,0.376c-0.243,0.248-0.394,0.586-0.456,1.014L12.912,4.935
	L12.912,4.935z"/>
</svg>
