<!-- Generator: Adobe Illustrator 17.0.0, SVG Export Plug-In  -->
<svg version="1.1"
	 xmlns="http://www.w3.org/2000/svg" xmlns:xlink="http://www.w3.org/1999/xlink" xmlns:a="http://ns.adobe.com/AdobeSVGViewerExtensions/3.0/"
	 x="0px" y="0px" width="277px" height="277px" viewBox="0 0 277 277" enable-background="new 0 0 277 277" xml:space="preserve">
<defs>
</defs>
<path opacity="0.5" fill="#FFFF00" d="M266.025,84.708c-7.318-17.105-17.158-31.843-29.524-44.209
	c-12.366-12.366-27.104-22.206-44.209-29.524C175.186,3.659,157.255,0,138.5,0c-18.757,0-36.688,3.659-53.792,10.975
	c-17.107,7.318-31.843,17.158-44.209,29.524C28.133,52.865,18.291,67.603,10.975,84.708C3.657,101.814,0,119.746,0,138.5
	c0,18.757,3.657,36.688,10.975,53.792c7.316,17.107,17.158,31.843,29.524,44.209c12.366,12.366,27.102,22.206,44.209,29.524
	C101.812,273.34,119.743,277,138.5,277c18.755,0,36.686-3.659,53.792-10.975c17.105-7.318,31.843-17.158,44.209-29.524
	c12.366-12.366,22.206-27.102,29.524-44.209C273.341,175.188,277,157.256,277,138.5C277,119.746,273.341,101.814,266.025,84.708z
	 M206.514,94.909L183.791,202.03c-1.754,7.627-5.927,9.584-12.521,5.874l-34.625-25.505l-16.694,16.076
	c-2.269,2.268-4.587,3.401-6.956,3.401l2.474-35.244l64.148-57.966c1.133-1.029,1.338-1.802,0.618-2.318
	c-1.135-0.824-2.782-0.515-4.946,0.927l-79.297,49.928L61.83,146.538c-2.473-0.72-4.122-1.725-4.946-3.014
	c-0.826-1.287-0.695-2.652,0.387-4.096c1.082-1.442,3.115-2.729,6.105-3.864L196.93,84.089c3.297-1.236,5.951-0.874,7.961,1.082
	C206.899,87.13,207.44,90.376,206.514,94.909z"/>
</svg>
