<!-- Generator: Adobe Illustrator 17.0.0, SVG Export Plug-In  -->
<svg version="1.1"
	 xmlns="http://www.w3.org/2000/svg" xmlns:xlink="http://www.w3.org/1999/xlink" xmlns:a="http://ns.adobe.com/AdobeSVGViewerExtensions/3.0/"
	 x="0px" y="0px" width="16.369px" height="9.339px" viewBox="0 0 16.369 9.339" enable-background="new 0 0 16.369 9.339"
	 xml:space="preserve">
<defs>
</defs>
<path id="vk_x5F_alt_2_" fill-rule="evenodd" clip-rule="evenodd" fill="#FFFFFF" d="M8.009,9.299h0.978
	c0,0,0.296-0.033,0.447-0.195c0.139-0.149,0.134-0.43,0.134-0.43s-0.019-1.313,0.59-1.506c0.601-0.19,1.372,1.269,2.19,1.83
	c0.618,0.425,1.088,0.332,1.088,0.332l2.186-0.031c0,0,1.144-0.071,0.601-0.97c-0.044-0.074-0.316-0.665-1.625-1.881
	c-1.371-1.272-1.187-1.066,0.464-3.267c1.006-1.34,1.408-2.158,1.282-2.509c-0.12-0.334-0.859-0.246-0.859-0.246l-2.461,0.015
	c0,0-0.183-0.025-0.318,0.056c-0.132,0.079-0.217,0.264-0.217,0.264s-0.39,1.037-0.909,1.919c-1.096,1.861-1.534,1.96-1.713,1.844
	c-0.417-0.27-0.313-1.082-0.313-1.659c0-1.804,0.274-2.556-0.533-2.75C8.753,0.052,8.556,0.009,7.871,0.002
	C6.993-0.007,6.25,0.005,5.829,0.211c-0.28,0.137-0.496,0.443-0.364,0.46c0.163,0.021,0.531,0.099,0.726,0.365
	C6.443,1.38,6.435,2.15,6.435,2.15s0.145,2.123-0.338,2.387C5.764,4.718,5.309,4.349,4.332,2.66
	C3.831,1.795,3.453,0.839,3.453,0.839S3.381,0.661,3.251,0.565C3.093,0.449,2.872,0.412,2.872,0.412L0.533,0.428
	c0,0-0.351,0.01-0.48,0.163c-0.115,0.136-0.009,0.417-0.009,0.417S1.875,5.291,3.949,7.45C5.85,9.429,8.009,9.299,8.009,9.299
	L8.009,9.299L8.009,9.299z"/>
</svg>
