<!-- Generator: Adobe Illustrator 17.0.0, SVG Export Plug-In  -->
<svg version="1.1"
	 xmlns="http://www.w3.org/2000/svg" xmlns:xlink="http://www.w3.org/1999/xlink" xmlns:a="http://ns.adobe.com/AdobeSVGViewerExtensions/3.0/"
	 x="0px" y="0px" width="14.323px" height="9.983px" viewBox="0 0 14.323 9.983" enable-background="new 0 0 14.323 9.983"
	 xml:space="preserve">
<defs>
</defs>
<path id="youtube_x5F_alt_2_" fill="#FFFFFF" d="M14.075,1.606c-0.175-0.762-0.798-1.324-1.548-1.407C10.751,0,8.953-0.001,7.164,0
	C5.374-0.001,3.576,0,1.8,0.198C1.05,0.282,0.427,0.844,0.252,1.606C0.003,2.691,0,3.874,0,4.992c0,1.117,0,2.301,0.249,3.386
	c0.175,0.762,0.798,1.323,1.548,1.407c1.776,0.198,3.574,0.199,5.363,0.198c1.79,0.001,3.587,0,5.363-0.198
	c0.75-0.084,1.373-0.645,1.548-1.407c0.249-1.085,0.251-2.269,0.251-3.386C14.323,3.874,14.324,2.691,14.075,1.606z M5.659,6.944
	V2.973l3.787,1.986L5.659,6.944z"/>
</svg>
