<?xml version="1.0" standalone="no"?>
<!DOCTYPE svg PUBLIC "-//W3C//DTD SVG 20010904//EN"
 "http://www.w3.org/TR/2001/REC-SVG-20010904/DTD/svg10.dtd">
<svg version="1.0" xmlns="http://www.w3.org/2000/svg"
 width="700.000000pt" height="700.000000pt" viewBox="0 0 700.000000 700.000000"
 preserveAspectRatio="xMidYMid meet">
<metadata>
Created by potrace 1.11, written by Peter Selinger 2001-2013
</metadata>
<g transform="translate(0.000000,700.000000) scale(0.100000,-0.100000)"
fill="#000000" stroke="none">
<path d="M5 4521 c-3 -2 -5 -463 -5 -1023 l0 -1018 108 -1 c1027 -5 1154 -4
1226 8 264 45 484 270 521 534 8 50 7 152 0 196 -22 129 -87 254 -183 350 -41
40 -78 73 -82 73 -5 0 4 29 21 63 117 251 38 553 -187 713 -57 41 -154 84
-221 100 -32 7 -1191 13 -1198 5z"/>
<path d="M2589 4521 c-1 -3 -2 -466 -3 -1029 l-1 -1023 455 2 c250 0 482 5
515 10 302 47 548 202 715 452 79 119 119 217 156 382 4 17 8 93 10 170 2 107
-2 160 -16 225 -77 360 -333 647 -681 763 -42 14 -98 29 -125 32 -27 4 -58 10
-69 13 -28 6 -955 9 -956 3z"/>
<path d="M5139 4523 c-1 -10 -1 -2003 0 -2025 1 -15 53 -16 654 -14 358 2 666
6 682 10 76 18 172 58 230 96 188 122 305 348 291 560 -6 99 -25 187 -46 215
-4 6 -11 21 -15 35 -12 42 -92 146 -154 201 l-58 53 27 60 c148 326 -35 706
-381 795 -68 17 -119 19 -651 20 -318 1 -578 -2 -579 -6z"/>
</g>
</svg>
